<mxfile host="app.diagrams.net" agent="Mozilla/5.0 (Windows NT 10.0; Win64; x64) AppleWebKit/537.36 (KHTML, like Gecko) Chrome/131.0.0.0 Safari/537.36" version="25.0.3">
  <diagram name="第 1 页" id="ab5GwDoAChZ14kwGVGM8">
    <mxGraphModel dx="2074" dy="1140" grid="1" gridSize="10" guides="1" tooltips="1" connect="1" arrows="1" fold="1" page="1" pageScale="1" pageWidth="827" pageHeight="1169" math="0" shadow="0">
      <root>
        <mxCell id="0" />
        <mxCell id="1" parent="0" />
        <mxCell id="DjN7pm375HyF4rTHMn-F-3" style="edgeStyle=orthogonalEdgeStyle;rounded=0;orthogonalLoop=1;jettySize=auto;html=1;exitX=1;exitY=0.5;exitDx=0;exitDy=0;entryX=0;entryY=0.5;entryDx=0;entryDy=0;" edge="1" parent="1" source="DjN7pm375HyF4rTHMn-F-1" target="DjN7pm375HyF4rTHMn-F-2">
          <mxGeometry relative="1" as="geometry" />
        </mxCell>
        <mxCell id="DjN7pm375HyF4rTHMn-F-6" style="edgeStyle=orthogonalEdgeStyle;rounded=0;orthogonalLoop=1;jettySize=auto;html=1;exitX=1;exitY=0.5;exitDx=0;exitDy=0;entryX=0;entryY=0.5;entryDx=0;entryDy=0;" edge="1" parent="1" source="DjN7pm375HyF4rTHMn-F-1" target="DjN7pm375HyF4rTHMn-F-5">
          <mxGeometry relative="1" as="geometry" />
        </mxCell>
        <mxCell id="DjN7pm375HyF4rTHMn-F-8" style="edgeStyle=orthogonalEdgeStyle;rounded=0;orthogonalLoop=1;jettySize=auto;html=1;entryX=0;entryY=0.5;entryDx=0;entryDy=0;" edge="1" parent="1" source="DjN7pm375HyF4rTHMn-F-1" target="DjN7pm375HyF4rTHMn-F-7">
          <mxGeometry relative="1" as="geometry" />
        </mxCell>
        <mxCell id="DjN7pm375HyF4rTHMn-F-1" value="&lt;font style=&quot;font-size: 16px;&quot;&gt;摆脱互联网极端民族主义&lt;/font&gt;" style="whiteSpace=wrap;html=1;aspect=fixed;" vertex="1" parent="1">
          <mxGeometry x="30" y="480" width="110" height="110" as="geometry" />
        </mxCell>
        <mxCell id="DjN7pm375HyF4rTHMn-F-2" value="&lt;font style=&quot;font-size: 16px;&quot;&gt;尝试以不同社会角色去看待问题&lt;/font&gt;" style="rounded=0;whiteSpace=wrap;html=1;" vertex="1" parent="1">
          <mxGeometry x="280" y="630" width="310" height="60" as="geometry" />
        </mxCell>
        <mxCell id="DjN7pm375HyF4rTHMn-F-5" value="&lt;font style=&quot;font-size: 16px;&quot;&gt;理性的深入的去看待问题本身&lt;/font&gt;" style="rounded=0;whiteSpace=wrap;html=1;" vertex="1" parent="1">
          <mxGeometry x="280" y="505" width="320" height="60" as="geometry" />
        </mxCell>
        <mxCell id="DjN7pm375HyF4rTHMn-F-7" value="&lt;font style=&quot;font-size: 16px;&quot;&gt;不要上来就给他人下定义&lt;/font&gt;" style="rounded=0;whiteSpace=wrap;html=1;" vertex="1" parent="1">
          <mxGeometry x="280" y="370" width="310" height="60" as="geometry" />
        </mxCell>
      </root>
    </mxGraphModel>
  </diagram>
</mxfile>
